<?xml version="1.0" standalone="no"?>
<!DOCTYPE svg PUBLIC "-//W3C//DTD SVG 20010904//EN"
 "http://www.w3.org/TR/2001/REC-SVG-20010904/DTD/svg10.dtd">
<svg version="1.0" xmlns="http://www.w3.org/2000/svg"
 width="300.000000pt" height="300.000000pt" viewBox="0 0 300.000000 300.000000"
 preserveAspectRatio="xMidYMid meet">
<metadata>
Created by potrace 1.10, written by Peter Selinger 2001-2011
</metadata>
<g transform="translate(0.000000,300.000000) scale(0.050000,-0.050000)"
fill="#0023ff" stroke="none">
<path d="M4152 4517 c-99 -22 -199 -84 -248 -152 l-38 -52 -120 34 c-124 35
-377 44 -422 16 -21 -14 -16 -33 24 -92 28 -42 60 -104 70 -138 10 -35 101
-301 201 -593 201 -581 384 -1115 494 -1440 40 -115 80 -231 89 -256 l18 -46
90 62 c207 143 317 370 307 639 l-6 169 75 16 c755 157 779 1283 31 1463 -44
11 -56 28 -67 95 -33 196 -272 328 -498 275z"/>
<path d="M760 4440 c-78 -78 -24 -180 93 -180 102 0 170 129 103 196 -38 38
-151 29 -196 -16z"/>
<path d="M1890 4283 c-161 -41 -228 -74 -357 -171 l-91 -71 -60 60 c-178 178
-496 -71 -341 -268 l41 -51 -76 -49 c-413 -264 -457 -880 -87 -1198 72 -61 77
-74 91 -214 14 -145 58 -303 113 -408 27 -51 28 -51 141 133 63 101 393 616
733 1144 492 764 614 965 594 986 -97 103 -487 163 -701 107z"/>
<path d="M2743 2858 c-91 -144 -162 -266 -157 -271 11 -10 420 -67 488 -67 43
0 41 8 -52 275 -53 151 -99 286 -104 300 -4 14 -83 -93 -175 -237z"/>
<path d="M2022 1735 c-71 -113 -163 -252 -206 -310 l-77 -104 76 -32 c307
-128 789 -62 1093 151 l108 76 45 -47 c91 -97 354 -142 423 -73 15 15 -92 358
-121 387 -12 12 -1109 157 -1183 157 -16 0 -88 -93 -158 -205z"/>
<path d="M4395 1448 c-44 -23 -53 -39 -44 -77 7 -27 -2 -74 -21 -111 -77 -148
165 -248 292 -122 160 161 -28 418 -227 310z"/>
</g>
</svg>
